<?xml version="1.0" standalone="no"?>
<!DOCTYPE svg PUBLIC "-//W3C//DTD SVG 20010904//EN"
 "http://www.w3.org/TR/2001/REC-SVG-20010904/DTD/svg10.dtd">
<svg version="1.0" xmlns="http://www.w3.org/2000/svg"
 width="400.000000pt" height="400.000000pt" viewBox="0 0 400.000000 400.000000"
 preserveAspectRatio="xMidYMid meet">
<metadata>
Created by potrace 1.11, written by Peter Selinger 2001-2013
</metadata>
<g transform="translate(0.000000,400.000000) scale(0.100000,-0.100000)"
fill="#000000" stroke="none">
<path d="M1785 3988 c-431 -44 -853 -243 -1174 -552 -623 -601 -787 -1535
-407 -2311 308 -629 909 -1046 1605 -1115 524 -52 1065 115 1466 452 230 194
391 399 521 663 271 553 271 1199 0 1750 -273 556 -777 951 -1376 1079 -205
44 -425 56 -635 34z m1435 -1203 c42 -21 60 -53 60 -103 0 -37 -6 -50 -34 -78
l-34 -34 -637 0 -637 0 -34 34 c-39 39 -45 86 -19 136 31 61 11 59 688 60 529
0 622 -2 647 -15z m-1911 -400 c228 -54 371 -239 371 -480 0 -203 -100 -369
-272 -450 -298 -141 -639 15 -713 326 -41 174 4 346 122 470 120 126 308 177
492 134z m1636 0 c146 -38 259 -129 320 -257 114 -240 28 -530 -196 -661 -55
-32 -184 -67 -249 -67 -221 0 -410 134 -481 340 -17 50 -22 88 -22 165 0 193
80 338 239 431 101 59 267 80 389 49z m-879 -26 c13 -12 28 -39 34 -58 13 -47
13 -816 0 -940 -23 -216 -125 -321 -327 -336 -64 -5 -84 -3 -113 12 -105 55
-72 203 46 203 71 0 120 25 144 74 19 41 20 59 20 510 0 512 1 519 59 552 37
20 106 12 137 -17z"/>
<path d="M1095 2164 c-35 -9 -111 -65 -134 -100 -92 -135 -47 -332 94 -407 57
-31 193 -31 250 0 47 25 96 74 121 123 27 50 26 190 0 244 -24 47 -74 99 -119
123 -32 16 -170 28 -212 17z"/>
<path d="M2695 2146 c-96 -45 -148 -132 -148 -246 0 -244 289 -362 462 -189
50 50 72 107 72 188 1 119 -53 205 -155 252 -61 28 -167 25 -231 -5z"/>
</g>
</svg>
