<?xml version="1.0" standalone="no"?>
<!DOCTYPE svg PUBLIC "-//W3C//DTD SVG 20010904//EN"
 "http://www.w3.org/TR/2001/REC-SVG-20010904/DTD/svg10.dtd">
<svg version="1.0" xmlns="http://www.w3.org/2000/svg"
 width="256.000000pt" height="256.000000pt" viewBox="0 0 256.000000 256.000000"
 preserveAspectRatio="xMidYMid meet">
<metadata>
Created by potrace 1.11, written by Peter Selinger 2001-2013
</metadata>
<g transform="translate(0.000000,256.000000) scale(0.100000,-0.100000)"
fill="#000000" stroke="none">
<path d="M1310 1910 c-21 -18 -42 -27 -52 -24 -19 6 -21 0 -10 -28 6 -13 16
-7 60 33 58 53 59 67 2 19z"/>
<path d="M943 1811 c-22 -19 -33 -58 -13 -46 9 6 44 65 38 65 -2 -1 -13 -9
-25 -19z"/>
<path d="M642 1790 c-18 -30 2 -43 27 -16 21 22 21 24 3 28 -11 3 -23 -2 -30
-12z"/>
<path d="M1685 1710 c-3 -5 -1 -10 4 -10 6 0 11 5 11 10 0 6 -2 10 -4 10 -3 0
-8 -4 -11 -10z"/>
<path d="M760 1700 c0 -5 5 -10 10 -10 6 0 10 5 10 10 0 6 -4 10 -10 10 -5 0
-10 -4 -10 -10z"/>
<path d="M1595 1700 c-3 -5 1 -10 9 -10 8 0 18 5 21 10 3 6 -1 10 -9 10 -8 0
-18 -4 -21 -10z"/>
<path d="M527 1684 c-4 -4 -7 -14 -7 -23 0 -11 3 -12 11 -4 6 6 10 16 7 23 -2
6 -7 8 -11 4z"/>
<path d="M392 1433 c-35 -108 -28 -237 15 -268 8 -6 25 -32 37 -56 16 -33 32
-49 66 -66 25 -12 57 -22 71 -23 14 0 38 -11 52 -24 14 -13 40 -27 56 -31 25
-5 33 -14 42 -48 7 -28 27 -57 59 -88 56 -55 115 -72 210 -62 57 5 63 4 89
-21 30 -29 78 -46 131 -46 28 0 44 -9 80 -45 45 -46 108 -76 203 -97 68 -14
124 -6 199 29 53 25 71 40 104 88 67 98 74 110 74 128 0 10 8 17 20 17 32 0
73 25 112 68 37 41 98 182 98 227 0 15 5 35 11 46 12 23 2 62 -14 56 -7 -2
-11 -18 -9 -36 2 -27 -1 -31 -23 -31 -15 0 -29 9 -36 23 -18 32 -29 110 -17
124 9 11 -9 53 -22 53 -8 0 -4 -185 4 -199 8 -12 -11 -80 -22 -82 -45 -8 -58
-2 -75 35 -11 23 -17 53 -15 73 4 29 1 34 -14 29 -31 -7 -87 49 -94 95 -4 21
-10 39 -14 39 -5 0 -15 -19 -22 -42 -18 -52 -48 -75 -120 -90 -48 -10 -68 -9
-122 3 l-64 16 -38 -45 c-36 -44 -38 -44 -88 -39 -27 2 -52 10 -54 16 -2 7
-13 2 -27 -13 -25 -27 -73 -43 -156 -52 -49 -6 -59 -4 -77 14 -19 19 -21 20
-27 3 -6 -21 -66 -51 -100 -51 -30 0 -94 40 -95 59 0 8 22 36 48 61 39 38 62
51 117 65 63 17 71 18 111 3 43 -15 44 -15 84 14 22 17 91 48 153 70 104 36
118 39 203 36 l90 -4 11 31 c5 16 14 38 18 49 6 14 -3 11 -36 -13 -43 -32 -45
-32 -144 -29 -55 2 -108 7 -117 12 -13 6 -18 4 -18 -6 0 -24 -43 -57 -100 -77
-47 -17 -58 -17 -91 -6 -78 28 -89 42 -105 130 l-7 40 -9 -30 c-5 -19 -4 -47
2 -73 16 -64 7 -80 -48 -88 -89 -14 -148 -10 -171 10 -22 20 -50 99 -53 150
-1 23 -2 20 -7 -14 -3 -25 -2 -66 3 -91 11 -57 4 -79 -27 -79 -41 0 -209 39
-232 54 -30 20 -47 83 -35 127 12 41 12 39 2 39 -5 0 -18 -30 -30 -67z m1440
-255 c19 -24 40 -53 46 -65 15 -27 16 -133 2 -133 -5 0 -10 11 -10 25 0 21 -5
25 -28 25 -15 0 -33 5 -40 12 -9 9 -17 9 -34 1 -57 -28 -84 -21 -88 22 -11
101 17 155 80 155 32 0 42 -6 72 -42z m-277 -25 c45 -23 63 -42 70 -74 10 -43
-9 -59 -65 -59 -35 0 -50 4 -54 16 -7 17 -8 17 -113 -5 -31 -6 -50 -5 -69 5
-37 19 -40 18 -80 -21 -38 -38 -54 -44 -54 -19 0 13 -6 15 -27 9 -16 -4 -81
-9 -145 -10 -111 -3 -117 -2 -108 15 15 28 73 42 158 39 70 -3 81 -1 119 23
23 15 45 32 48 39 5 8 30 9 81 4 l74 -7 34 37 c31 33 39 36 68 30 18 -4 47
-14 63 -22z m68 -332 c8 -8 6 -11 -8 -12 -18 0 -18 -1 3 -11 32 -16 28 -38 -7
-38 -19 0 -35 -8 -45 -21 -10 -15 -29 -23 -60 -26 -44 -5 -62 6 -35 23 6 3 9
18 6 31 -4 20 1 27 24 37 16 7 27 15 23 19 -3 3 -3 10 0 15 7 12 83 -1 99 -17z"/>
<path d="M547 1474 c-18 -24 -18 -24 8 -24 18 0 25 5 25 19 0 30 -13 32 -33 5z"/>
<path d="M1270 1473 c0 -5 5 -15 10 -23 8 -12 10 -11 10 8 0 12 -4 22 -10 22
-5 0 -10 -3 -10 -7z"/>
<path d="M1900 1470 c0 -5 7 -10 16 -10 8 0 12 5 9 10 -3 6 -10 10 -16 10 -5
0 -9 -4 -9 -10z"/>
</g>
</svg>
